<svg id="Capa_1" enable-background="new 0 0 512 512" height="512" viewBox="0 0 512 512" width="512" xmlns="http://www.w3.org/2000/svg"><g><path d="m181.181 190.041c-27.394 12.939-47.644 37.063-55.979 65.638-41.881 5.195-63.734 40.467-63.734 75.368 0 37.538 24.028 70.363 63.733 75.276 4.323 14.822 11.879 28.611 22.189 40.272-3.32 7.008-6.864 13.871-10.64 20.555-11.262 19.939 2.507 44.85 25.626 44.85h187.248c23.098 0 36.901-24.888 25.626-44.848-3.776-6.684-7.32-13.548-10.64-20.555 10.31-11.663 17.867-25.453 22.19-40.276 41.88-5.195 63.732-40.468 63.732-75.368 0-37.583-24.068-70.369-63.735-75.277-8.363-28.664-28.714-52.848-56.239-65.756-2.245-21.856-13.22-41.432-29.329-54.25 1.334-19.283 8.645-37.704 20.774-52.631 6.951 4.401 15.178 6.961 23.997 6.961 24.813 0 45-20.187 45-45s-20.187-45-45-45-45 20.187-45 45c0 4.853.782 9.524 2.209 13.906-16.028 17.623-26.62 39.55-30.523 62.946-5.572-1.267-11.13-1.845-16.687-1.833-5.648.012-11.239.651-16.677 1.887-3.896-23.416-14.492-45.363-30.532-62.999 1.428-4.383 2.21-9.054 2.21-13.907 0-24.813-20.187-45-45-45s-45 20.187-45 45 20.187 45 45 45c8.819 0 17.046-2.56 23.997-6.961 12.029 14.804 19.322 33.046 20.742 52.157-17.359 13.14-28.125 33.117-29.558 54.845zm-60.181 184.881c-19.345-5.847-29.532-24.235-29.532-43.875 0-18.786 9.258-37.7 29.532-43.917zm270-87.844c19.345 5.847 29.532 24.235 29.532 43.875 0 18.786-9.258 37.7-29.532 43.917zm-45-257.078c8.271 0 15 6.729 15 15s-6.729 15-15 15-15-6.729-15-15 6.729-15 15-15zm-180 30c-8.271 0-15-6.729-15-15s6.729-15 15-15 15 6.729 15 15-6.729 15-15 15zm-5.208 354.01c-6.342-11.186-9.792-23.935-9.792-37.01v-92c0-23.988 11.483-46.078 30-60.003v71.837c0 39.644-7.031 79.809-20.208 117.176zm170.208-189.013c18.517 13.925 30 36.015 30 60.003v92c0 13.075-3.45 25.824-9.792 37.01-13.177-37.368-20.208-77.532-20.208-117.176zm-120 71.837v-101.834c0-24.864 20.09-44.973 45-44.995 26.821-.023 45 23.191 45 48.21v98.619c0 64.587 17.224 130.365 48.129 185.082.017.03.033.062.049.094l-186.354-.003c.016-.032.031-.063.048-.092 30.883-54.678 48.128-120.449 48.128-185.081z"/></g></svg>