<svg id="Capa_1" enable-background="new 0 0 511.999 511.999" height="512" viewBox="0 0 511.999 511.999" width="512" xmlns="http://www.w3.org/2000/svg"><g><path d="m255.89 158.306c28.328-28.195 42-41.503 75.12-74.881 19.089-19.085 19.089-50.025 0-69.11s-50.035-19.085-69.124 0l-5.549 5.548-5.549-5.548c-19.089-19.085-50.035-19.085-69.124 0-19.09 19.086-19.089 50.025 0 69.11 5.762 5.807 40.029 40.378 74.226 74.881z"/><path d="m160.982 103.424c-19.089-19.085-50.035-19.085-69.124 0-19.08 19.085-19.08 50.025 0 69.11l5.549 5.548-5.549 5.548c-19.08 19.085-19.08 50.025 0 69.11 19.09 19.069 50.025 19.077 69.124 0 31.478-31.157 55.978-55.411 75.046-74.29-14.964-15.138-29.905-30.253-75.046-75.026z"/><path d="m250.106 342.524 5.549-5.548 5.549 5.548c19.089 19.085 50.035 19.085 69.124 0 19.09-19.086 19.09-50.025 0-69.11-2.445-2.469-38.403-38.75-74.438-75.108-17.114 17.033-39.574 39.498-74.908 75.108-19.089 19.085-19.089 50.025 0 69.11s50.035 19.085 69.124 0z"/><path d="m414.585 178.755 5.549-5.548c19.089-19.076 19.089-50.025 0-69.102-19.089-19.086-50.035-19.086-69.124 0-31.143 30.825 30.981-30.567-74.982 74.345 14.942 15.116 29.907 30.255 74.982 74.963 19.089 19.085 50.035 19.085 69.124 0s19.089-50.025 0-69.11z"/><path d="m373.859 296.87c1.052 7.528 1.081 15.12-.08 22.85 31.173 48.017 6.892 115.67-52.06 130.09l-133.37 32.62c-8.05 1.96-12.97 10.08-11.01 18.13 1.955 7.969 9.985 12.979 18.14 11.01l133.36-32.62c82.143-20.093 114.324-116.748 65.83-181.74-6.55.764-13.684.715-20.81-.34z"/></g></svg>