<?xml version="1.0"?>
<svg xmlns="http://www.w3.org/2000/svg" id="Capa_1" enable-background="new 0 0 512 512" height="512px" viewBox="0 0 512 512" width="512px" class=""><g transform="matrix(1 0 0 1 0 0)"><g><path d="m346 0c-24.814 0-45 20.186-45 45 0 5.083 1.033 9.888 2.593 14.449-16.15 17.816-26.79 39.694-30.566 63.347-5.284-1.608-10.8-2.752-16.763-2.752-6.079 0-11.796 1.143-17.287 2.77-3.77-23.661-14.414-45.546-30.569-63.365 1.559-4.559 2.592-9.366 2.592-14.449 0-24.814-20.186-45-45-45s-45 20.186-45 45 20.186 45 45 45c8.659 0 16.679-2.574 23.551-6.83 13.11 16.086 20.775 36.136 21.237 57.779-9.132 10.551-14.788 24.126-14.788 39.051v131.836c0 61.436-15.967 124.197-46.187 177.693-2.71 4.805-2.71 10.664.015 15.322 2.637 4.541 7.222 7.148 12.554 7.148h187.236c5.332 0 9.917-2.607 12.568-7.148 2.71-4.658 2.71-10.532 0-15.322-30.219-53.496-46.186-116.258-46.186-177.693v-128.628c0-15.392-5.568-30.132-14.954-41.57.103-21.487 7.958-42.001 21.398-58.473 6.871 4.257 14.893 6.835 23.556 6.835 24.814 0 45-20.186 45-45s-20.186-45-45-45z" data-original="#000000" class="active-path" data-old_color="#000000" fill="#FFFFFF"/><path d="m166 199.001c-27.149 18.981-45 50.359-45 85.999v91c0 23.033 7.635 44.154 20.209 61.465 16.231-39.426 24.791-82.821 24.791-125.629z" data-original="#000000" class="active-path" data-old_color="#000000" fill="#FFFFFF"/><path d="m346 199.001v112.835c0 42.812 8.564 86.208 24.789 125.631 12.576-17.311 20.211-38.432 20.211-61.467v-91c0-35.64-17.851-67.018-45-85.999z" data-original="#000000" class="active-path" data-old_color="#000000" fill="#FFFFFF"/><path d="m418.464 260.358c1.516 8.078 2.536 16.283 2.536 24.642v91c0 8.348-1.009 16.547-2.536 24.642 27.801-10.975 47.536-37.941 47.536-69.642 0-31.703-19.735-59.667-47.536-70.642z" data-original="#000000" class="active-path" data-old_color="#000000" fill="#FFFFFF"/><path d="m93.536 400.642c-1.527-8.095-2.536-16.294-2.536-24.642v-91c0-8.359 1.02-16.564 2.536-24.642-27.801 10.975-47.536 38.939-47.536 70.642 0 31.701 19.735 58.667 47.536 69.642z" data-original="#000000" class="active-path" data-old_color="#000000" fill="#FFFFFF"/></g></g> </svg>
