<svg id="Capa_1" enable-background="new 0 0 512 512" height="512" viewBox="0 0 512 512" width="512" xmlns="http://www.w3.org/2000/svg"><g><path d="m226 157.559c-8.291 0-15-6.24-15-14.531 0-27.144-11.074-52.295-30.396-69.961-6.108-5.596-6.533-15.088-.952-21.196 5.61-6.123 15.117-6.519 21.196-.952 25.518 23.349 40.152 56.571 40.152 91.156 0 8.291-6.709 15.484-15 15.484z" fill="#ffd396"/><path d="m286 157.559c-8.291 0-15-6.24-15-14.531v-.952c0-34.585 14.634-67.808 40.151-91.157 6.094-5.566 15.601-5.171 21.196.952 5.581 6.108 5.156 15.601-.952 21.196-19.321 17.665-30.395 42.817-30.395 69.008 0 8.291-6.709 15.484-15 15.484z" fill="#ffb64c"/><ellipse cx="136" cy="331" fill="#5b362a" rx="75" ry="76"/><ellipse cx="376" cy="331" fill="#38211a" rx="75" ry="76"/><path d="m286 180h-30-30c-57.99 0-105 47.01-105 105v92c0 57.99 47.01 105 105 105h30 30c57.99 0 105-47.01 105-105v-92c0-57.99-47.01-105-105-105z" fill="#704c55"/><path d="m391 377v-92c0-57.99-47.01-105-105-105h-30v302h30c57.99 0 105-47.01 105-105z" fill="#5b362a"/><path d="m166 90c-24.814 0-45-20.186-45-45s20.186-45 45-45 45 20.186 45 45-20.186 45-45 45z" fill="#ffd396"/><path d="m346 90c-24.814 0-45-20.186-45-45s20.186-45 45-45 45 20.186 45 45-20.186 45-45 45z" fill="#ffb64c"/><path d="m375.253 467.146c-28.945-51.24-44.253-110.453-44.253-169.31v-102.836c0-41.422-33.578-75-75-75s-75 33.578-75 75v102.836c0 58.857-15.308 118.07-44.253 169.325-5.317 9.419-5.273 21.021.117 30.249 5.332 9.141 14.883 14.59 25.518 14.59h93.618 93.618c10.635 0 20.186-5.449 25.518-14.59 5.39-9.228 5.434-20.83.117-30.264z" fill="#ffd396"/><path d="m375.136 497.41c5.391-9.229 5.435-20.83.117-30.264-28.945-51.24-44.253-110.453-44.253-169.31v-102.836c0-41.422-33.578-75-75-75v392h93.618c10.635 0 20.186-5.449 25.518-14.59z" fill="#ffb64c"/><circle cx="166" cy="45" fill="#704c55" r="15"/><circle cx="346" cy="45" fill="#5b362a" r="15"/></g></svg>